<svg viewBox="0 0 34 24" xmlns="http://www.w3.org/2000/svg"><rect x="5" y="5" width="3" height="13" fill="#2d5fb0"/><rect x="6" y="4" width="3" height="2" fill="#1d4287"/><rect x="7" y="14" width="17" height="4" fill="#2d5fb0"/><rect x="23" y="11" width="4" height="7" fill="#1d4287"/><rect x="6" y="18" width="21" height="2" fill="#1d4287"/><rect x="8" y="20" width="3" height="2" fill="#d9a520"/><rect x="22" y="20" width="3" height="2" fill="#d9a520"/><rect x="5" y="7" width="1" height="1" fill="#d9a520"/><rect x="5" y="11" width="1" height="1" fill="#d9a520"/><rect x="5" y="15" width="1" height="1" fill="#d9a520"/><rect x="5" y="2" width="1" height="3" fill="#009246"/><rect x="6" y="2" width="1" height="3" fill="#f1f2f1"/><rect x="7" y="2" width="1" height="3" fill="#ce2b37"/><rect x="12" y="1" width="9" height="2" fill="#e2e2e2"/><rect x="10" y="3" width="3" height="5" fill="#d4d4d4"/><rect x="20" y="3" width="3" height="5" fill="#c8c8c8"/><rect x="12" y="2" width="9" height="7" fill="#f2c39b"/><rect x="12" y="4" width="4" height="2" fill="#151515"/><rect x="18" y="4" width="4" height="2" fill="#151515"/><rect x="16" y="4" width="2" height="1" fill="#151515"/><rect x="13" y="5" width="2" height="1" fill="#8fa8b8"/><rect x="19" y="5" width="2" height="1" fill="#8fa8b8"/><rect x="17" y="5" width="1" height="2" fill="#d99668"/><rect x="15" y="7" width="5" height="1" fill="#8a5044"/><rect x="12" y="9" width="9" height="5" fill="#1b1c22"/><rect x="16" y="9" width="2" height="4" fill="#26262c"/><rect x="20" y="10" width="6" height="2" fill="#1b1c22"/><rect x="26" y="11" width="1" height="1" fill="#f2c39b"/><rect x="13" y="14" width="8" height="2" fill="#0d0e12"/><rect x="19" y="16" width="3" height="3" fill="#0d0e12"/></svg>